<?xml version="1.0" encoding="UTF-8" standalone="no"?>
<!DOCTYPE svg PUBLIC "-//W3C//DTD SVG 1.1//EN" "http://www.w3.org/Graphics/SVG/1.1/DTD/svg11.dtd">
<svg width="100%" height="100%" viewBox="0 0 1024 1024" version="1.1" xmlns="http://www.w3.org/2000/svg" xmlns:xlink="http://www.w3.org/1999/xlink" xml:space="preserve" xmlns:serif="http://www.serif.com/" style="fill-rule:evenodd;clip-rule:evenodd;stroke-linejoin:round;stroke-miterlimit:2;">
    <g id="barktail" transform="matrix(1,0,0,1,-13.4523,3.71644)">
        <path d="M212.593,979.066C212.593,979.066 274.083,839.53 453.167,815.63C651.597,789.149 714.517,764.831 779.316,727.803C844.115,690.775 976.359,586.303 972.392,395.872C968.424,205.441 791.218,51.596 576.984,38.815C362.749,26.033 171.347,104.292 94.295,372.511C165.112,302.525 208.024,291.843 208.024,291.843C208.024,291.843 95.617,427.997 78.426,512C166.354,446.785 275.065,437.352 275.065,437.352C275.065,437.352 242.004,460.32 224.297,503.919C283.204,534.601 474.972,558.975 512,560.297C469.244,578.56 370.147,634.606 293.578,740.268C189.351,884.098 212.593,979.066 212.593,979.066Z" style="fill:rgb(153,119,255);"/>
        <path d="M100.186,398.758C93.657,400.221 86.633,399.243 80.569,395.645C70.047,389.401 65.063,376.844 68.441,365.084C109.231,223.095 180.957,131.855 270.169,77.335C358.964,23.07 465.705,5.229 578.586,11.963C807.456,25.618 995.047,191.872 999.285,395.312C1003.54,599.372 862.099,711.48 792.662,751.158C725.884,789.317 661.213,815.003 456.725,842.293C293.837,864.031 237.208,989.913 237.208,989.913C232.562,1000.46 221.718,1006.87 210.241,1005.86C198.764,1004.86 189.203,996.651 186.465,985.46C186.465,985.46 158.305,881.1 271.797,724.484C320.45,657.345 377.811,609.334 425.49,577.627C350.93,567.012 251.92,548.635 211.872,527.776C199.567,521.368 194.155,506.652 199.375,493.798C201.457,488.673 203.72,483.791 206.109,479.154C172.358,489.356 131.429,506.179 94.45,533.605C85.496,540.246 73.374,540.676 63.972,534.686C54.571,528.696 49.838,517.528 52.073,506.607C58.592,474.75 78.019,435.682 100.186,398.758ZM212.593,979.066C212.593,979.066 274.083,839.53 453.167,815.63C651.597,789.149 714.517,764.831 779.316,727.803C844.115,690.775 976.359,586.303 972.392,395.872C968.424,205.441 791.218,51.596 576.984,38.815C362.749,26.033 171.347,104.292 94.295,372.511C165.112,302.525 208.024,291.843 208.024,291.843C208.024,291.843 95.617,427.997 78.426,512C166.354,446.785 275.065,437.352 275.065,437.352C275.065,437.352 242.004,460.32 224.297,503.919C283.204,534.601 474.972,558.975 512,560.297C469.244,578.56 370.147,634.606 293.578,740.268C189.351,884.098 212.593,979.066 212.593,979.066Z" style="fill:rgb(245,144,184);"/>
        <path d="M212.593,979.066C212.593,979.066 274.083,839.53 453.167,815.63C651.597,789.149 714.517,764.831 779.316,727.803C844.115,690.775 976.359,586.303 972.392,395.872C968.424,205.441 791.218,51.596 576.984,38.815C362.749,26.033 171.347,104.292 94.295,372.511C165.112,302.525 208.024,291.843 208.024,291.843C208.024,291.843 95.617,427.997 78.426,512C166.354,446.785 275.065,437.352 275.065,437.352C275.065,437.352 242.004,460.32 224.297,503.919C283.204,534.601 474.972,558.975 512,560.297C469.244,578.56 370.147,634.606 293.578,740.268C189.351,884.098 212.593,979.066 212.593,979.066Z" style="fill:none;"/>
        <clipPath id="_clip1">
            <path d="M212.593,979.066C212.593,979.066 274.083,839.53 453.167,815.63C651.597,789.149 714.517,764.831 779.316,727.803C844.115,690.775 976.359,586.303 972.392,395.872C968.424,205.441 791.218,51.596 576.984,38.815C362.749,26.033 171.347,104.292 94.295,372.511C165.112,302.525 208.024,291.843 208.024,291.843C208.024,291.843 95.617,427.997 78.426,512C166.354,446.785 275.065,437.352 275.065,437.352C275.065,437.352 242.004,460.32 224.297,503.919C283.204,534.601 474.972,558.975 512,560.297C469.244,578.56 370.147,634.606 293.578,740.268C189.351,884.098 212.593,979.066 212.593,979.066Z"/>
        </clipPath>
        <g clip-path="url(#_clip1)">
            <g transform="matrix(3.58924,0,0,1.28547,-828.695,-656.903)">
                <rect x="244.241" y="796.07" width="266.899" height="181.748" style="fill:white;"/>
            </g>
            <g transform="matrix(3.48454,0,0,1.11671,-789.674,-695.882)">
                <rect x="244.241" y="796.07" width="266.899" height="181.748" style="fill:rgb(245,169,184);"/>
            </g>
            <g transform="matrix(3.48454,0,0,1.11671,-747.912,-293.541)">
                <rect x="244.241" y="796.07" width="266.899" height="181.748" style="fill:rgb(245,169,184);"/>
            </g>
            <g transform="matrix(1.92957,0,0,1.09751,-296.743,-81.3382)">
                <rect x="244.241" y="796.07" width="266.899" height="181.748" style="fill:rgb(91,206,250);"/>
            </g>
            <g transform="matrix(2.82098,0,0,1.09751,-531.474,-876.351)">
                <rect x="244.241" y="796.07" width="266.899" height="181.748" style="fill:rgb(91,206,250);"/>
            </g>
        </g>
        <path d="M198.994,982.394C198.994,982.394 173.194,882.535 282.242,732.053C340.709,651.371 412.014,598.924 462.765,569.637C389.504,560.775 263.898,540.33 217.83,516.336C211.426,513 208.609,505.341 211.326,498.651C217.821,482.658 226.219,469.212 234.518,458.401C196.216,467.002 137.852,485.355 86.766,523.245C82.106,526.701 75.796,526.925 70.903,523.807C66.01,520.69 63.547,514.877 64.71,509.193C75.334,457.281 121.203,385.858 156.026,337.237C141.283,348.266 123.873,362.963 104.136,382.469C99.606,386.945 92.627,387.801 87.151,384.551C81.674,381.302 79.081,374.766 80.839,368.646C120.543,230.435 190.057,141.411 276.895,88.342C363.516,35.405 467.701,18.27 577.817,24.84C799.669,38.075 982.28,198.379 986.389,395.58C990.504,593.105 853.475,701.551 786.262,739.959C720.433,777.575 656.602,802.605 455.019,829.507C284.365,852.282 225.404,984.712 225.404,984.712C222.986,990.199 217.342,993.536 211.369,993.012C205.395,992.488 200.419,988.218 198.994,982.394ZM212.593,979.066C212.593,979.066 274.083,839.53 453.167,815.63C651.597,789.149 714.517,764.831 779.316,727.803C844.115,690.775 976.359,586.303 972.392,395.872C968.424,205.441 791.218,51.596 576.984,38.815C362.749,26.033 171.347,104.292 94.295,372.511C165.112,302.525 208.024,291.843 208.024,291.843C208.024,291.843 95.617,427.997 78.426,512C166.354,446.785 275.065,437.352 275.065,437.352C275.065,437.352 242.004,460.32 224.297,503.919C283.204,534.601 474.972,558.975 512,560.297C469.244,578.56 370.147,634.606 293.578,740.268C189.351,884.098 212.593,979.066 212.593,979.066Z"/>
        <path d="M972.388,412.709C968.518,592.484 842.18,691.881 779.316,727.803C714.517,764.831 651.597,789.149 453.167,815.63C274.083,839.53 212.593,979.066 212.593,979.066C212.593,979.066 212.468,978.555 212.277,977.553C298.909,745.112 573.525,794.519 760.585,696.168C941.648,600.97 970.62,424.642 972.388,412.709Z" style="fill-opacity:0.31;"/>
        <g transform="matrix(1,0,0,1.03953,0,-17.9689)">
            <path d="M275.061,438.005C275.061,438.005 518.656,602.179 749.05,508.284C619.576,562.808 568.07,556.998 568.07,556.998C568.07,556.998 225.899,563.851 222.341,499.166C220.21,460.431 275.061,438.005 275.061,438.005Z" style="fill-opacity:0.3;"/>
        </g>
        <g transform="matrix(1,0,0,1.03953,0,-17.9689)">
            <path d="M105.023,439.404C97.533,474.052 136.766,466.572 262.115,440.093C130.14,482.414 77.433,514.962 75.83,513.195C60.568,496.374 105.023,439.404 105.023,439.404Z" style="fill-opacity:0.3;"/>
        </g>
        <path d="M198.994,982.394C198.994,982.394 173.194,882.535 282.242,732.053C340.709,651.371 412.014,598.924 462.765,569.637C389.504,560.775 263.898,540.33 217.83,516.336C211.426,513 208.609,505.341 211.326,498.651C217.821,482.658 226.219,469.212 234.518,458.401C196.216,467.002 137.852,485.355 86.766,523.245C82.106,526.701 75.796,526.925 70.903,523.807C66.01,520.69 63.547,514.877 64.71,509.193C75.334,457.281 121.203,385.858 156.026,337.237C141.283,348.266 123.873,362.963 104.136,382.469C99.606,386.945 92.627,387.801 87.151,384.551C81.674,381.302 79.081,374.766 80.839,368.646C120.543,230.435 190.057,141.411 276.895,88.342C363.516,35.405 467.701,18.27 577.817,24.84C799.669,38.075 982.28,198.379 986.389,395.58C990.504,593.105 853.475,701.551 786.262,739.959C720.433,777.575 656.602,802.605 455.019,829.507C284.365,852.282 225.404,984.712 225.404,984.712C222.986,990.199 217.342,993.536 211.369,993.012C205.395,992.488 200.419,988.218 198.994,982.394ZM212.593,979.066C212.593,979.066 274.083,839.53 453.167,815.63C651.597,789.149 714.517,764.831 779.316,727.803C844.115,690.775 976.359,586.303 972.392,395.872C968.424,205.441 791.218,51.596 576.984,38.815C362.749,26.033 171.347,104.292 94.295,372.511C165.112,302.525 208.024,291.843 208.024,291.843C208.024,291.843 95.617,427.997 78.426,512C166.354,446.785 275.065,437.352 275.065,437.352C275.065,437.352 242.004,460.32 224.297,503.919C283.204,534.601 474.972,558.975 512,560.297C469.244,578.56 370.147,634.606 293.578,740.268C189.351,884.098 212.593,979.066 212.593,979.066Z"/>
        <g transform="matrix(1,0,0,1,-80,20)">
            <circle cx="468.846" cy="273.972" r="43.154" style="fill:rgb(255,211,255);"/>
        </g>
        <g transform="matrix(1,0,0,1,80,20)">
            <circle cx="468.846" cy="273.972" r="43.154" style="fill:rgb(255,211,255);"/>
        </g>
        <g transform="matrix(1,0,0,1,240,20)">
            <circle cx="468.846" cy="273.972" r="43.154" style="fill:rgb(255,211,255);"/>
        </g>
        <g transform="matrix(0.945509,0,0,0.945509,-54.1004,33.2807)">
            <circle cx="468.846" cy="273.972" r="43.154" style="fill:white;"/>
        </g>
        <g transform="matrix(0.948825,0,0,0.948825,104.201,32.2288)">
            <circle cx="468.846" cy="273.972" r="43.154" style="fill:white;"/>
        </g>
        <g transform="matrix(0.952616,0,0,0.952616,262.261,31.0267)">
            <circle cx="468.846" cy="273.972" r="43.154" style="fill:white;"/>
        </g>
    </g>
</svg>
