<?xml version="1.0" encoding="utf-8"?>
<!-- Generator: Adobe Illustrator 16.0.0, SVG Export Plug-In . SVG Version: 6.00 Build 0)  -->
<!DOCTYPE svg PUBLIC "-//W3C//DTD SVG 1.1//EN" "http://www.w3.org/Graphics/SVG/1.1/DTD/svg11.dtd">
<svg version="1.1" id="Layer_1" xmlns="http://www.w3.org/2000/svg" xmlns:xlink="http://www.w3.org/1999/xlink" x="0px" y="0px"
	 width="15px" height="15px" viewBox="0 0 15 15" enable-background="new 0 0 15 15" xml:space="preserve">
<path fill="#FFFFFF" d="M7,8.5V8h0.5C7.776,8,8,8.224,8,8.5S7.776,9,7.5,9S7,8.776,7,8.5z"/>
<path fill="#FFFFFF" d="M11.5,6C11.225,6,11,6.224,11,6.5v2C11,8.776,11.225,9,11.5,9S12,8.776,12,8.5v-2C12,6.224,11.775,6,11.5,6z
	"/>
<path fill="#FFFFFF" stroke="#000000" stroke-width="0.25" stroke-miterlimit="10" d="M0,7.5C0,3.358,3.358,0,7.5,0
	c2.063,0,3.931,0.833,5.287,2.18C12.999,2.065,13.242,2,13.5,2C14.328,2,15,2.671,15,3.5c0,0.47-0.217,0.89-0.555,1.165
	C14.803,5.539,15,6.497,15,7.5c0,4.143-3.357,7.5-7.5,7.5C3.358,15,0,11.643,0,7.5z M13.5,3C13.225,3,13,3.224,13,3.5
	S13.225,4,13.5,4S14,3.776,14,3.5S13.775,3,13.5,3z M2,6h1.5L2.6,7.2C2.486,7.352,2.468,7.554,2.553,7.724C2.638,7.893,2.811,8,3,8
	h0.5C3.776,8,4,8.224,4,8.5S3.776,9,3.5,9H2v1h1.5C4.329,10,5,9.328,5,8.5c0-0.672-0.442-1.241-1.051-1.432L4.9,5.8
	c0.114-0.151,0.132-0.354,0.047-0.523C4.862,5.107,4.689,5,4.5,5H2V6z M7.5,5C6.671,5,6,5.671,6,6.5v2C6,9.328,6.671,10,7.5,10
	C8.328,10,9,9.328,9,8.5C9,7.671,8.328,7,7.5,7H7V6.5C7,6.224,7.224,6,7.5,6H8V5H7.5z M10,6.5C10,5.671,10.672,5,11.5,5
	S13,5.671,13,6.5v2c0,0.828-0.672,1.5-1.5,1.5S10,9.328,10,8.5V6.5z"/>
</svg>
